<?xml version="1.0" encoding="utf-8"?>
<!-- Generator: Adobe Illustrator 24.0.0, SVG Export Plug-In . SVG Version: 6.00 Build 0)  -->
<svg version="1.1" id="Layer_1" xmlns="http://www.w3.org/2000/svg" xmlns:xlink="http://www.w3.org/1999/xlink" x="0px" y="0px"
	 viewBox="0 0 696 493" style="enable-background:new 0 0 696 493;" xml:space="preserve">
<style type="text/css">
	.st0{fill-rule:evenodd;clip-rule:evenodd;}
	.st1{fill-rule:evenodd;clip-rule:evenodd;fill:#FFFFFF;}
	.st2{fill-rule:evenodd;clip-rule:evenodd;fill:#00252E;}
	.st3{fill-rule:evenodd;clip-rule:evenodd;fill:#E1E8EE;}
	.st4{fill-rule:evenodd;clip-rule:evenodd;fill:#D8D8D8;}
	.st5{fill-rule:evenodd;clip-rule:evenodd;fill:url(#SVGID_1_);}
	.st6{fill-rule:evenodd;clip-rule:evenodd;fill:#A7B9C8;}
	.st7{fill-rule:evenodd;clip-rule:evenodd;fill:url(#SVGID_2_);}
	.st8{fill-rule:evenodd;clip-rule:evenodd;fill:url(#SVGID_3_);}
	.st9{fill-rule:evenodd;clip-rule:evenodd;fill:url(#SVGID_4_);}
	.st10{fill-rule:evenodd;clip-rule:evenodd;fill:url(#SVGID_5_);}
	.st11{fill-rule:evenodd;clip-rule:evenodd;fill:url(#SVGID_6_);}
	.st12{fill-rule:evenodd;clip-rule:evenodd;fill:url(#SVGID_7_);}
	.st13{fill-rule:evenodd;clip-rule:evenodd;fill:url(#SVGID_8_);}
	.st14{fill-rule:evenodd;clip-rule:evenodd;fill:url(#SVGID_9_);}
	.st15{fill-rule:evenodd;clip-rule:evenodd;fill:url(#SVGID_10_);}
	.st16{fill-rule:evenodd;clip-rule:evenodd;fill:url(#SVGID_11_);}
</style>
<g>
	<g transform="translate(7 7)">
		<g>
			<path id="b" class="st0" d="M6.7-7h630.2c7.6,0,13.7,6.1,13.7,13.7v383.4c0,7.6-6.1,13.7-13.7,13.7H6.7
				c-7.6,0-13.7-6.1-13.7-13.7V6.7C-7-0.9-0.9-7,6.7-7z"/>
		</g>
		<g>
			<path id="b_1_" class="st1" d="M6.7-7h630.2c7.6,0,13.7,6.1,13.7,13.7v383.4c0,7.6-6.1,13.7-13.7,13.7H6.7
				c-7.6,0-13.7-6.1-13.7-13.7V6.7C-7-0.9-0.9-7,6.7-7z"/>
		</g>
		<g>
			<path id="d" class="st0" d="M6.7-7h630.2c7.6,0,13.7,6.1,13.7,13.7v30.1H-7V6.7C-7-0.9-0.9-7,6.7-7z"/>
		</g>
		<g>
			<path id="d_1_" class="st2" d="M6.7-7h630.2c7.6,0,13.7,6.1,13.7,13.7v30.1H-7V6.7C-7-0.9-0.9-7,6.7-7z"/>
		</g>
		<path class="st3" d="M45.7,6.7h130.2c1.9,0,3.4,1.5,3.4,3.4v9.6c0,1.9-1.5,3.4-3.4,3.4H45.7c-1.9,0-3.4-1.5-3.4-3.4v-9.6
			C42.3,8.2,43.9,6.7,45.7,6.7z"/>
		<g transform="translate(591.874 15.064)">
			<path class="st4" d="M-5.6-7h19.2c0.8,0,1.4,0.6,1.4,1.4v0c0,0.8-0.6,1.4-1.4,1.4H-5.6C-6.4-4.3-7-4.9-7-5.6v0
				C-7-6.4-6.4-7-5.6-7z"/>
			<path class="st4" d="M-5.6-1.5h19.2c0.8,0,1.4,0.6,1.4,1.4v0c0,0.8-0.6,1.4-1.4,1.4H-5.6C-6.4,1.2-7,0.6-7-0.2v0
				C-7-0.9-6.4-1.5-5.6-1.5z"/>
			<path class="st4" d="M-5.6,4h19.2c0.8,0,1.4,0.6,1.4,1.4v0c0,0.8-0.6,1.4-1.4,1.4H-5.6C-6.4,6.7-7,6.1-7,5.3v0
				C-7,4.6-6.4,4-5.6,4z"/>
		</g>
		<g transform="translate(49.323 94.492)">
			
				<linearGradient id="SVGID_1_" gradientUnits="userSpaceOnUse" x1="-386.154" y1="527.7684" x2="-385.5421" y2="526.3507" gradientTransform="matrix(65.764 0 0 -65.734 25399.9668 34669.6797)">
				<stop  offset="0" style="stop-color:#FAD961"/>
				<stop  offset="1" style="stop-color:#FF52C1"/>
			</linearGradient>
			<ellipse class="st5" cx="25.9" cy="25.9" rx="32.9" ry="32.9"/>
			<g transform="translate(104.126 8.217)">
				<path class="st3" d="M-4.9-7h74.7c1.1,0,2.1,0.9,2.1,2.1v6.8C71.8,3,70.9,4,69.7,4H-4.9C-6.1,4-7,3-7,1.9v-6.8
					C-7-6.1-6.1-7-4.9-7z"/>
				<path class="st3" d="M-4.9,14.9H265c1.1,0,2.1,0.9,2.1,2.1v1.4c0,1.1-0.9,2.1-2.1,2.1H-4.9c-1.1,0-2.1-0.9-2.1-2.1V17
					C-7,15.8-6.1,14.9-4.9,14.9z"/>
				<path class="st3" d="M-4.9,25.9h247.1c1.1,0,2.1,0.9,2.1,2.1v1.4c0,1.1-0.9,2.1-2.1,2.1H-4.9c-1.1,0-2.1-0.9-2.1-2.1v-1.4
					C-7,26.8-6.1,25.9-4.9,25.9z"/>
				<path class="st3" d="M-4.9,36.8h224.2c1.1,0,2.1,0.9,2.1,2.1v1.4c0,1.1-0.9,2.1-2.1,2.1H-4.9c-1.1,0-2.1-0.9-2.1-2.1v-1.4
					C-7,37.7-6.1,36.8-4.9,36.8z"/>
			</g>
			<g transform="translate(411.024 24.65)">
				<ellipse class="st6" cx="1.2" cy="1.2" rx="8.2" ry="8.2"/>
				<ellipse class="st6" cx="45.1" cy="1.2" rx="8.2" ry="8.2"/>
				<ellipse class="st6" cx="23.1" cy="1.2" rx="8.2" ry="8.2"/>
				<ellipse class="st6" cx="67" cy="1.2" rx="8.2" ry="8.2"/>
				<ellipse class="st6" cx="88.9" cy="1.2" rx="8.2" ry="8.2"/>
			</g>
		</g>
		<g transform="translate(49.323 187.614)">
			
				<linearGradient id="SVGID_2_" gradientUnits="userSpaceOnUse" x1="-385.503" y1="434.2765" x2="-385.503" y2="433.2765" gradientTransform="matrix(61.654 0 0 -61.626 23791.6289 26755.7227)">
				<stop  offset="0" style="stop-color:#00C7FA"/>
				<stop  offset="1" style="stop-color:#007DFA"/>
			</linearGradient>
			<ellipse class="st7" cx="23.8" cy="23.8" rx="30.8" ry="30.8"/>
			<g transform="translate(102.07 6.162)">
				<path class="st3" d="M-4.9-7h74.7c1.1,0,2.1,0.9,2.1,2.1v6.8C71.8,3,70.9,4,69.7,4H-4.9C-6.1,4-7,3-7,1.9v-6.8
					C-7-6.1-6.1-7-4.9-7z"/>
				<path class="st3" d="M-4.9,14.9H265c1.1,0,2.1,0.9,2.1,2.1v1.4c0,1.1-0.9,2.1-2.1,2.1H-4.9c-1.1,0-2.1-0.9-2.1-2.1V17
					C-7,15.8-6.1,14.9-4.9,14.9z"/>
				<path class="st3" d="M-4.9,25.9h247.1c1.1,0,2.1,0.9,2.1,2.1v1.4c0,1.1-0.9,2.1-2.1,2.1H-4.9c-1.1,0-2.1-0.9-2.1-2.1v-1.4
					C-7,26.8-6.1,25.9-4.9,25.9z"/>
				<path class="st3" d="M-4.9,36.8h224.2c1.1,0,2.1,0.9,2.1,2.1v1.4c0,1.1-0.9,2.1-2.1,2.1H-4.9c-1.1,0-2.1-0.9-2.1-2.1v-1.4
					C-7,37.7-6.1,36.8-4.9,36.8z"/>
			</g>
			<g transform="translate(408.969 22.596)">
				<ellipse class="st6" cx="1.2" cy="1.2" rx="8.2" ry="8.2"/>
				<ellipse class="st6" cx="45.1" cy="1.2" rx="8.2" ry="8.2"/>
				<ellipse class="st6" cx="23.1" cy="1.2" rx="8.2" ry="8.2"/>
			</g>
		</g>
		<g transform="translate(49.323 285.53)">
			
				<linearGradient id="SVGID_3_" gradientUnits="userSpaceOnUse" x1="-385.7631" y1="336.3331" x2="-385.1508" y2="335.2206" gradientTransform="matrix(61.654 0 0 -61.626 23791.6289 20721.5527)">
				<stop  offset="0" style="stop-color:#FF52C1"/>
				<stop  offset="1" style="stop-color:#9952FF"/>
			</linearGradient>
			<ellipse class="st8" cx="23.8" cy="23.8" rx="30.8" ry="30.8"/>
			<g transform="translate(102.07 6.162)">
				<path class="st3" d="M-4.9-7h74.7c1.1,0,2.1,0.9,2.1,2.1v6.8C71.8,3,70.9,4,69.7,4H-4.9C-6.1,4-7,3-7,1.9v-6.8
					C-7-6.1-6.1-7-4.9-7z"/>
				<path class="st3" d="M-4.9,14.9H265c1.1,0,2.1,0.9,2.1,2.1v1.4c0,1.1-0.9,2.1-2.1,2.1H-4.9c-1.1,0-2.1-0.9-2.1-2.1V17
					C-7,15.8-6.1,14.9-4.9,14.9z"/>
				<path class="st3" d="M-4.9,25.9h247.1c1.1,0,2.1,0.9,2.1,2.1v1.4c0,1.1-0.9,2.1-2.1,2.1H-4.9c-1.1,0-2.1-0.9-2.1-2.1v-1.4
					C-7,26.8-6.1,25.9-4.9,25.9z"/>
				<path class="st3" d="M-4.9,36.8h224.2c1.1,0,2.1,0.9,2.1,2.1v1.4c0,1.1-0.9,2.1-2.1,2.1H-4.9c-1.1,0-2.1-0.9-2.1-2.1v-1.4
					C-7,37.7-6.1,36.8-4.9,36.8z"/>
			</g>
			<g transform="translate(408.969 22.596)">
				<ellipse class="st6" cx="1.2" cy="1.2" rx="8.2" ry="8.2"/>
				<ellipse class="st6" cx="45.1" cy="1.2" rx="8.2" ry="8.2"/>
				<ellipse class="st6" cx="23.1" cy="1.2" rx="8.2" ry="8.2"/>
				<ellipse class="st6" cx="67" cy="1.2" rx="8.2" ry="8.2"/>
			</g>
		</g>
	</g>
	<g transform="translate(483.787 149.422)">
		<g>
			<path id="i" class="st0" d="M4.7-7h195.8c6.5,0,11.7,5.2,11.7,11.7v327.2c0,6.5-5.2,11.7-11.7,11.7H4.7
				c-6.5,0-11.7-5.2-11.7-11.7V4.7C-7-1.8-1.8-7,4.7-7z"/>
		</g>
		<g>
			<path id="i_1_" class="st1" d="M4.7-7h195.8c6.5,0,11.7,5.2,11.7,11.7v327.2c0,6.5-5.2,11.7-11.7,11.7H4.7
				c-6.5,0-11.7-5.2-11.7-11.7V4.7C-7-1.8-1.8-7,4.7-7z"/>
		</g>
	</g>
	<g transform="translate(483.787 149.422)">
		<g>
			<path id="k" class="st0" d="M4.7-7h195.8c6.5,0,11.7,5.2,11.7,11.7v25.7H-7V4.7C-7-1.8-1.8-7,4.7-7z"/>
		</g>
		<g>
			<path id="k_1_" class="st2" d="M4.7-7h195.8c6.5,0,11.7,5.2,11.7,11.7v25.7H-7V4.7C-7-1.8-1.8-7,4.7-7z"/>
		</g>
	</g>
	<g transform="translate(505.8 162.277)">
		<path class="st3" d="M-4.1-7h65.4c1.6,0,2.9,1.3,2.9,2.9v8.2c0,1.6-1.3,2.9-2.9,2.9H-4.1C-5.7,7-7,5.7-7,4.1v-8.2
			C-7-5.7-5.7-7-4.1-7z"/>
		<g transform="translate(155.111 1.169)">
			<path class="st4" d="M-5.8-7h16.4c0.6,0,1.2,0.5,1.2,1.2l0,0c0,0.6-0.5,1.2-1.2,1.2H-5.8C-6.5-4.7-7-5.2-7-5.8l0,0
				C-7-6.5-6.5-7-5.8-7z"/>
			<path class="st4" d="M-5.8-2.3h16.4c0.6,0,1.2,0.5,1.2,1.2l0,0c0,0.6-0.5,1.2-1.2,1.2H-5.8C-6.5,0-7-0.5-7-1.2l0,0
				C-7-1.8-6.5-2.3-5.8-2.3z"/>
			<path class="st4" d="M-5.8,2.3h16.4c0.6,0,1.2,0.5,1.2,1.2l0,0c0,0.6-0.5,1.2-1.2,1.2H-5.8C-6.5,4.7-7,4.2-7,3.5l0,0
				C-7,2.9-6.5,2.3-5.8,2.3z"/>
		</g>
	</g>
	<g transform="translate(505.709 223.372)">
		
			<linearGradient id="SVGID_4_" gradientUnits="userSpaceOnUse" x1="-824.568" y1="401.5375" x2="-823.9562" y2="400.1198" gradientTransform="matrix(20.552 0 0 -20.542 16943.252 8236.4941)">
			<stop  offset="0" style="stop-color:#FAD961"/>
			<stop  offset="1" style="stop-color:#FF52C1"/>
		</linearGradient>
		<ellipse class="st9" cx="3.3" cy="3.3" rx="10.3" ry="10.3"/>
		<g transform="translate(31.512 2.054)">
			<path class="st3" d="M-6.4-7h38.1c0.3,0,0.6,0.3,0.6,0.6V-4c0,0.3-0.3,0.6-0.6,0.6H-6.4C-6.7-3.3-7-3.6-7-4v-2.4
				C-7-6.7-6.7-7-6.4-7z"/>
			<path class="st3" d="M-6.4,0.3h135.7c0.3,0,0.6,0.3,0.6,0.6v0.6c0,0.3-0.3,0.6-0.6,0.6H-6.4C-6.7,2.1-7,1.8-7,1.5V0.9
				C-7,0.6-6.7,0.3-6.4,0.3z"/>
			<path class="st3" d="M-6.4,4H118c0.3,0,0.6,0.3,0.6,0.6v0.6c0,0.3-0.3,0.6-0.6,0.6H-6.4C-6.7,5.8-7,5.5-7,5.2V4.6
				C-7,4.2-6.7,4-6.4,4z"/>
			<path class="st3" d="M-6.4,7.6h112.9c0.3,0,0.6,0.3,0.6,0.6v0.6c0,0.3-0.3,0.6-0.6,0.6H-6.4C-6.7,9.4-7,9.2-7,8.8V8.2
				C-7,7.9-6.7,7.6-6.4,7.6z"/>
		</g>
	</g>
	<g transform="translate(505.709 317.864)">
		
			<linearGradient id="SVGID_5_" gradientUnits="userSpaceOnUse" x1="-824.568" y1="307.0455" x2="-823.9562" y2="305.6278" gradientTransform="matrix(20.552 0 0 -20.542 16943.252 6295.4395)">
			<stop  offset="0" style="stop-color:#FAD961"/>
			<stop  offset="1" style="stop-color:#FF52C1"/>
		</linearGradient>
		<ellipse class="st10" cx="3.3" cy="3.3" rx="10.3" ry="10.3"/>
		<g transform="translate(31.512 2.054)">
			<path class="st3" d="M-6.4-7h38.1c0.3,0,0.6,0.3,0.6,0.6V-4c0,0.3-0.3,0.6-0.6,0.6H-6.4C-6.7-3.3-7-3.6-7-4v-2.4
				C-7-6.7-6.7-7-6.4-7z"/>
			<path class="st3" d="M-6.4,0.3h135.7c0.3,0,0.6,0.3,0.6,0.6v0.6c0,0.3-0.3,0.6-0.6,0.6H-6.4C-6.7,2.1-7,1.8-7,1.5V0.9
				C-7,0.6-6.7,0.3-6.4,0.3z"/>
			<path class="st3" d="M-6.4,4H118c0.3,0,0.6,0.3,0.6,0.6v0.6c0,0.3-0.3,0.6-0.6,0.6H-6.4C-6.7,5.8-7,5.5-7,5.2V4.6
				C-7,4.2-6.7,4-6.4,4z"/>
			<path class="st3" d="M-6.4,7.6h112.9c0.3,0,0.6,0.3,0.6,0.6v0.6c0,0.3-0.3,0.6-0.6,0.6H-6.4C-6.7,9.4-7,9.2-7,8.8V8.2
				C-7,7.9-6.7,7.6-6.4,7.6z"/>
		</g>
	</g>
	<g transform="translate(505.709 254.87)">
		<g transform="translate(31.512 2.054)">
			<path class="st3" d="M-6.4-7h38.1c0.3,0,0.6,0.3,0.6,0.6V-4c0,0.3-0.3,0.6-0.6,0.6H-6.4C-6.7-3.3-7-3.6-7-4v-2.4
				C-7-6.7-6.7-7-6.4-7z"/>
			<path class="st3" d="M-6.4,0.3h135.7c0.3,0,0.6,0.3,0.6,0.6v0.6c0,0.3-0.3,0.6-0.6,0.6H-6.4C-6.7,2.1-7,1.8-7,1.5V0.9
				C-7,0.6-6.7,0.3-6.4,0.3z"/>
			<path class="st3" d="M-6.4,4H118c0.3,0,0.6,0.3,0.6,0.6v0.6c0,0.3-0.3,0.6-0.6,0.6H-6.4C-6.7,5.8-7,5.5-7,5.2V4.6
				C-7,4.2-6.7,4-6.4,4z"/>
			<path class="st3" d="M-6.4,7.6h112.9c0.3,0,0.6,0.3,0.6,0.6v0.6c0,0.3-0.3,0.6-0.6,0.6H-6.4C-6.7,9.4-7,9.2-7,8.8V8.2
				C-7,7.9-6.7,7.6-6.4,7.6z"/>
		</g>
		
			<linearGradient id="SVGID_6_" gradientUnits="userSpaceOnUse" x1="-824.2495" y1="369.8015" x2="-824.2495" y2="368.8015" gradientTransform="matrix(20.552 0 0 -20.542 16943.252 7589.4624)">
			<stop  offset="0" style="stop-color:#00C7FA"/>
			<stop  offset="1" style="stop-color:#007DFA"/>
		</linearGradient>
		<ellipse class="st11" cx="3.3" cy="3.3" rx="10.3" ry="10.3"/>
	</g>
	<g transform="translate(505.709 349.361)">
		<g transform="translate(31.512 2.054)">
			<path class="st3" d="M-6.4-7h38.1c0.3,0,0.6,0.3,0.6,0.6V-4c0,0.3-0.3,0.6-0.6,0.6H-6.4C-6.7-3.3-7-3.6-7-4v-2.4
				C-7-6.7-6.7-7-6.4-7z"/>
			<path class="st3" d="M-6.4,0.3h135.7c0.3,0,0.6,0.3,0.6,0.6v0.6c0,0.3-0.3,0.6-0.6,0.6H-6.4C-6.7,2.1-7,1.8-7,1.5V0.9
				C-7,0.6-6.7,0.3-6.4,0.3z"/>
			<path class="st3" d="M-6.4,4H118c0.3,0,0.6,0.3,0.6,0.6v0.6c0,0.3-0.3,0.6-0.6,0.6H-6.4C-6.7,5.8-7,5.5-7,5.2V4.6
				C-7,4.2-6.7,4-6.4,4z"/>
			<path class="st3" d="M-6.4,7.6h112.9c0.3,0,0.6,0.3,0.6,0.6v0.6c0,0.3-0.3,0.6-0.6,0.6H-6.4C-6.7,9.4-7,9.2-7,8.8V8.2
				C-7,7.9-6.7,7.6-6.4,7.6z"/>
		</g>
		
			<linearGradient id="SVGID_7_" gradientUnits="userSpaceOnUse" x1="-824.2495" y1="275.3105" x2="-824.2495" y2="274.3105" gradientTransform="matrix(20.552 0 0 -20.542 16943.252 5648.4282)">
			<stop  offset="0" style="stop-color:#00C7FA"/>
			<stop  offset="1" style="stop-color:#007DFA"/>
		</linearGradient>
		<ellipse class="st12" cx="3.3" cy="3.3" rx="10.3" ry="10.3"/>
	</g>
	<g transform="translate(505.709 286.367)">
		<g transform="translate(31.512 2.054)">
			<path class="st3" d="M-6.4-7h38.1c0.3,0,0.6,0.3,0.6,0.6V-4c0,0.3-0.3,0.6-0.6,0.6H-6.4C-6.7-3.3-7-3.6-7-4v-2.4
				C-7-6.7-6.7-7-6.4-7z"/>
			<path class="st3" d="M-6.4,0.3h135.7c0.3,0,0.6,0.3,0.6,0.6v0.6c0,0.3-0.3,0.6-0.6,0.6H-6.4C-6.7,2.1-7,1.8-7,1.5V0.9
				C-7,0.6-6.7,0.3-6.4,0.3z"/>
			<path class="st3" d="M-6.4,4H118c0.3,0,0.6,0.3,0.6,0.6v0.6c0,0.3-0.3,0.6-0.6,0.6H-6.4C-6.7,5.8-7,5.5-7,5.2V4.6
				C-7,4.2-6.7,4-6.4,4z"/>
			<path class="st3" d="M-6.4,7.6h112.9c0.3,0,0.6,0.3,0.6,0.6v0.6c0,0.3-0.3,0.6-0.6,0.6H-6.4C-6.7,9.4-7,9.2-7,8.8V8.2
				C-7,7.9-6.7,7.6-6.4,7.6z"/>
		</g>
		
			<linearGradient id="SVGID_8_" gradientUnits="userSpaceOnUse" x1="-824.5096" y1="338.2771" x2="-823.8973" y2="337.1646" gradientTransform="matrix(20.552 0 0 -20.542 16943.252 6942.4512)">
			<stop  offset="0" style="stop-color:#FF52C1"/>
			<stop  offset="1" style="stop-color:#9952FF"/>
		</linearGradient>
		<ellipse class="st13" cx="3.3" cy="3.3" rx="10.3" ry="10.3"/>
	</g>
	<g transform="translate(505.709 380.858)">
		<g transform="translate(31.512 2.054)">
			<path class="st3" d="M-6.4-7h38.1c0.3,0,0.6,0.3,0.6,0.6V-4c0,0.3-0.3,0.6-0.6,0.6H-6.4C-6.7-3.3-7-3.6-7-4v-2.4
				C-7-6.7-6.7-7-6.4-7z"/>
			<path class="st3" d="M-6.4,0.3h135.7c0.3,0,0.6,0.3,0.6,0.6v0.6c0,0.3-0.3,0.6-0.6,0.6H-6.4C-6.7,2.1-7,1.8-7,1.5V0.9
				C-7,0.6-6.7,0.3-6.4,0.3z"/>
			<path class="st3" d="M-6.4,4H118c0.3,0,0.6,0.3,0.6,0.6v0.6c0,0.3-0.3,0.6-0.6,0.6H-6.4C-6.7,5.8-7,5.5-7,5.2V4.6
				C-7,4.2-6.7,4-6.4,4z"/>
			<path class="st3" d="M-6.4,7.6h112.9c0.3,0,0.6,0.3,0.6,0.6v0.6c0,0.3-0.3,0.6-0.6,0.6H-6.4C-6.7,9.4-7,9.2-7,8.8V8.2
				C-7,7.9-6.7,7.6-6.4,7.6z"/>
		</g>
		
			<linearGradient id="SVGID_9_" gradientUnits="userSpaceOnUse" x1="-824.5096" y1="243.7861" x2="-823.8973" y2="242.6736" gradientTransform="matrix(20.552 0 0 -20.542 16943.252 5001.417)">
			<stop  offset="0" style="stop-color:#FF52C1"/>
			<stop  offset="1" style="stop-color:#9952FF"/>
		</linearGradient>
		<ellipse class="st14" cx="3.3" cy="3.3" rx="10.3" ry="10.3"/>
	</g>
	<g transform="translate(505.709 412.356)">
		
			<linearGradient id="SVGID_10_" gradientUnits="userSpaceOnUse" x1="-824.568" y1="212.5535" x2="-823.9562" y2="211.1358" gradientTransform="matrix(20.552 0 0 -20.542 16943.252 4354.3853)">
			<stop  offset="0" style="stop-color:#FAD961"/>
			<stop  offset="1" style="stop-color:#FF52C1"/>
		</linearGradient>
		<ellipse class="st15" cx="3.3" cy="3.3" rx="10.3" ry="10.3"/>
		<g transform="translate(31.512 2.054)">
			<path class="st3" d="M-6.4-7h38.1c0.3,0,0.6,0.3,0.6,0.6V-4c0,0.3-0.3,0.6-0.6,0.6H-6.4C-6.7-3.3-7-3.6-7-4v-2.4
				C-7-6.7-6.7-7-6.4-7z"/>
			<path class="st3" d="M-6.4,0.3h135.7c0.3,0,0.6,0.3,0.6,0.6v0.6c0,0.3-0.3,0.6-0.6,0.6H-6.4C-6.7,2.1-7,1.8-7,1.5V0.9
				C-7,0.6-6.7,0.3-6.4,0.3z"/>
			<path class="st3" d="M-6.4,4H118c0.3,0,0.6,0.3,0.6,0.6v0.6c0,0.3-0.3,0.6-0.6,0.6H-6.4C-6.7,5.8-7,5.5-7,5.2V4.6
				C-7,4.2-6.7,4-6.4,4z"/>
			<path class="st3" d="M-6.4,7.6h112.9c0.3,0,0.6,0.3,0.6,0.6v0.6c0,0.3-0.3,0.6-0.6,0.6H-6.4C-6.7,9.4-7,9.2-7,8.8V8.2
				C-7,7.9-6.7,7.6-6.4,7.6z"/>
		</g>
	</g>
	<g transform="translate(505.709 443.853)">
		<g transform="translate(31.512 2.054)">
			<path class="st3" d="M-6.4-7h38.1c0.3,0,0.6,0.3,0.6,0.6V-4c0,0.3-0.3,0.6-0.6,0.6H-6.4C-6.7-3.3-7-3.6-7-4v-2.4
				C-7-6.7-6.7-7-6.4-7z"/>
			<path class="st3" d="M-6.4,0.3h135.7c0.3,0,0.6,0.3,0.6,0.6v0.6c0,0.3-0.3,0.6-0.6,0.6H-6.4C-6.7,2.1-7,1.8-7,1.5V0.9
				C-7,0.6-6.7,0.3-6.4,0.3z"/>
			<path class="st3" d="M-6.4,4H118c0.3,0,0.6,0.3,0.6,0.6v0.6c0,0.3-0.3,0.6-0.6,0.6H-6.4C-6.7,5.8-7,5.5-7,5.2V4.6
				C-7,4.2-6.7,4-6.4,4z"/>
			<path class="st3" d="M-6.4,7.6h112.9c0.3,0,0.6,0.3,0.6,0.6v0.6c0,0.3-0.3,0.6-0.6,0.6H-6.4C-6.7,9.4-7,9.2-7,8.8V8.2
				C-7,7.9-6.7,7.6-6.4,7.6z"/>
		</g>
		
			<linearGradient id="SVGID_11_" gradientUnits="userSpaceOnUse" x1="-824.2495" y1="180.8185" x2="-824.2495" y2="179.8185" gradientTransform="matrix(20.552 0 0 -20.542 16943.252 3707.3738)">
			<stop  offset="0" style="stop-color:#00C7FA"/>
			<stop  offset="1" style="stop-color:#007DFA"/>
		</linearGradient>
		<ellipse class="st16" cx="3.3" cy="3.3" rx="10.3" ry="10.3"/>
	</g>
</g>
</svg>
