<?xml version="1.0" encoding="utf-8"?>
<!-- Generator: Adobe Illustrator 24.0.0, SVG Export Plug-In . SVG Version: 6.00 Build 0)  -->
<svg version="1.1" id="Layer_1" xmlns="http://www.w3.org/2000/svg" xmlns:xlink="http://www.w3.org/1999/xlink" x="0px" y="0px"
	 viewBox="0 0 183.3 29.3" style="enable-background:new 0 0 183.3 29.3;" xml:space="preserve">
<style type="text/css">
	.st0{fill:#FFFFFF;}
</style>
<g>
	<path class="st0" d="M21.4,0.5c-5.9,0-12.1,1.3-18.3,3.1c-0.8,0.2-1.6,0.7-2,1.3C0.7,5.5,0.6,6.1,0.5,6.7
		c-0.6,3.4-0.5,6.7-0.4,10.4c0,0.8,0.2,1.8,0.5,2.5c0.4,0.6,1.1,1,2,1.1c1.1,0.2,2.2,0.3,3.2,0.4l-0.2,6.7c0,0.5,0.2,1,0.5,1.2
		c0.3,0.2,0.6,0.3,0.9,0.3c0.7,0,1.4-0.2,1.8-1c1.7-3.2,2.7-4.7,4.8-6.8c5.5,0.1,10.3-0.2,15.7-0.6c1.9,0,3.2-1.6,3.6-2.9
		c1-3.2,1.2-7.2,1.3-11.3c0-1.6-0.5-3.2-1.5-4c-0.9-0.8-2.1-1-3.1-1.3C26.8,0.9,23.9,0.5,21.4,0.5L21.4,0.5z M29.3,3
		c1,0.3,2,0.6,2.5,1c1,1,0.9,1.7,0.9,2.8c-0.1,3.9-0.3,7.7-1.2,10.6c-0.4,1.1-1,1.8-2.3,2c-5.5,0.4-10.3,0.7-15.8,0.6
		c-0.2,0-0.4,0.1-0.6,0.2c-2.3,2.4-3.5,4-5.3,7.4c0,0.1-0.1,0.1-0.2,0.1c-0.1,0-0.1-0.1-0.1-0.1l0.2-7.2c0-0.4-0.3-0.7-0.7-0.8
		c-1.3-0.1-2.6-0.3-3.9-0.5c-0.6-0.1-0.8-0.2-0.9-0.5c-0.3-0.6-0.3-1-0.3-1.6C1.5,13.4,1.5,10.2,2,7c0.1-0.5,0.2-1,0.4-1.4
		C2.7,5.2,3.2,5.1,3.7,5c6.1-1.7,12-2.9,17.6-2.9C24.1,2.1,27,2.4,29.3,3z M8.2,9.2c-0.8,1-0.8,2.4-0.1,3.3c0.3,0.5,0.9,0.9,1.5,1
		c0.8,0.1,1.4-0.3,1.9-0.7c1-0.9,1.1-2.5,0.4-3.6c-0.4-0.6-1-0.9-1.7-0.9C9.3,8.2,8.7,8.6,8.2,9.2z M17.3,8.4
		c-0.8,0-1.5,0.6-1.9,1.2c-0.5,0.7-0.7,1.6-0.4,2.5c0.7,1.7,3.3,1.7,4.3,0c0.5-0.8,0.3-1.7,0-2.3c-0.3-0.7-0.9-1.2-1.6-1.3
		C17.6,8.4,17.4,8.4,17.3,8.4z M24.7,8.6c-0.3,0-0.5,0-0.8,0.1c-1,0.3-1.9,1.3-1.7,2.6c0.1,0.7,0.4,1.3,0.9,1.8
		c0.6,0.5,1.4,0.6,2.2,0.5c1-0.2,1.6-1,1.8-1.7c0.2-0.8,0.2-1.5-0.3-2.2C26.3,9,25.5,8.6,24.7,8.6z M10.2,9.8c0.2,0,0.3,0.1,0.5,0.3
		c0.3,0.5,0.2,1.2-0.1,1.5c-0.3,0.3-0.6,0.3-0.7,0.3c-0.1,0-0.3-0.1-0.4-0.3c-0.3-0.4-0.3-1,0-1.4C9.6,10,9.9,9.8,10.2,9.8z
		 M17.4,10c0,0,0.4,0.2,0.5,0.5c0.2,0.3,0.2,0.6,0,0.8c-0.4,0.8-1.4,0.5-1.5,0.2c-0.1-0.1,0-0.6,0.2-1C16.9,10.1,17.3,9.9,17.4,10
		L17.4,10z M25.5,10.5c0,0.1,0.2,0.5,0.1,0.8c-0.1,0.3-0.2,0.5-0.6,0.6c-0.5,0.1-0.7,0-0.9-0.2c-0.2-0.2-0.3-0.4-0.4-0.7
		c-0.1-0.7,0.2-0.9,0.6-1C24.8,10,25.3,10.2,25.5,10.5z M44.1,3.6c0-0.2,0.1-0.4,0.2-0.5c0.1-0.2,0.3-0.2,0.5-0.2h5.2
		c0.2,0,0.4,0.1,0.5,0.2c0.2,0.1,0.3,0.3,0.3,0.6V12h8.7V3.6c0-0.4,0.3-0.8,0.8-0.8c0,0,0,0,0,0h5.2c0.2,0,0.4,0.1,0.6,0.2
		c0.2,0.1,0.3,0.3,0.3,0.6v24.6c0,0.3-0.1,0.5-0.2,0.6c-0.2,0.1-0.4,0.2-0.6,0.2h-5.2c-0.2,0-0.4-0.1-0.6-0.2
		c-0.1-0.1-0.2-0.3-0.2-0.6v-10h-8.7v10c0,0.2-0.1,0.4-0.2,0.6C50.5,28.9,50.3,29,50,29h-5.2c-0.5,0-0.7-0.2-0.8-0.7L44.1,3.6z
		 M92.2,28.7c-0.1,0.1-0.3,0.2-0.5,0.2c-0.2,0-0.3,0.1-0.5,0.1h-2.7c-0.2,0-0.4,0-0.5-0.1c-0.1-0.1-0.3-0.2-0.4-0.3
		c-0.1-0.1-0.2-0.3-0.3-0.4c-0.1-0.2-0.1-0.3-0.2-0.5l-0.5-2.3c-0.2,0.4-0.4,0.8-0.8,1.2c-0.4,0.5-0.8,0.9-1.3,1.3
		c-0.6,0.4-1.2,0.8-1.8,1c-0.7,0.3-1.5,0.4-2.5,0.4c-1.3,0-2.6-0.3-3.6-0.8c-1.1-0.5-2-1.2-2.8-2.1c-0.8-0.9-1.4-1.9-1.8-3.1
		c-0.4-1.2-0.6-2.5-0.6-3.8V8c0-0.4,0.1-0.8,0.3-1c0.2-0.2,0.5-0.3,0.9-0.3h4.1c0.5,0,0.8,0.1,1,0.3C78,7.1,78,7.4,78,7.9v11.4
		c0,0.5,0.1,1,0.3,1.4c0.5,0.9,1.2,1.6,2.2,2c0.5,0.2,1,0.3,1.5,0.3c0.4,0,0.9-0.1,1.3-0.3c0.5-0.2,0.9-0.5,1.3-0.8
		c0.4-0.3,0.7-0.7,0.9-1.2c0.2-0.5,0.4-0.9,0.4-1.4V7.9c0-0.2,0-0.4,0.1-0.6c0.1-0.2,0.2-0.3,0.3-0.5c0.2-0.1,0.3-0.2,0.4-0.2
		c0.1,0,0.3,0,0.5,0h4c0.5,0,0.9,0.1,1.1,0.4c0.2,0.2,0.3,0.6,0.3,1v19.7c0,0.2-0.1,0.4-0.2,0.6c-0.1,0.2-0.2,0.3-0.4,0.4L92.2,28.7
		z M112.6,26.3c-0.3,0.3-0.7,0.7-1,1c-0.4,0.4-0.8,0.7-1.3,1s-0.9,0.6-1.5,0.8c-0.5,0.2-1.1,0.3-1.7,0.3c-1.6,0-3.1-0.3-4.4-0.9
		c-1.3-0.6-2.5-1.4-3.5-2.5c-1-1-1.7-2.3-2.3-3.7c-0.5-1.4-0.8-2.9-0.8-4.5c0-1.6,0.3-3.1,0.8-4.5c0.5-1.4,1.3-2.6,2.3-3.7
		c1-1,2.2-1.9,3.5-2.4c1.3-0.6,2.8-0.9,4.4-0.9c0.6,0,1.2,0.1,1.8,0.3c0.5,0.2,1,0.4,1.5,0.7c0.4,0.3,0.8,0.6,1.2,1
		c0.4,0.4,0.7,0.7,1,1.1v-8c0-0.4,0.1-0.7,0.3-0.9c0.2-0.3,0.6-0.4,1-0.4h4c0.2,0,0.3,0,0.5,0.1c0.2,0.1,0.3,0.2,0.5,0.3
		c0.1,0.1,0.3,0.3,0.3,0.4c0.1,0.2,0.1,0.3,0.1,0.5v26.3c0,0.9-0.5,1.4-1.4,1.4h-3.4c-0.2,0-0.4,0-0.5-0.1c-0.1-0.1-0.2-0.1-0.3-0.3
		c-0.1-0.1-0.2-0.3-0.2-0.4c-0.1-0.2-0.2-0.4-0.3-0.6L112.6,26.3z M102.5,17.8c0,0.8,0.1,1.5,0.4,2.2c0.2,0.6,0.6,1.2,1,1.8
		c0.4,0.5,1,0.9,1.6,1.2c0.6,0.3,1.3,0.4,2.1,0.4c0.8,0,1.5-0.1,2.1-0.4c0.7-0.3,1.2-0.6,1.7-1.1c0.5-0.5,0.9-1.1,1.2-1.7
		c0.3-0.7,0.5-1.4,0.5-2.1v-0.2c0-0.8-0.1-1.5-0.4-2.1c-0.3-0.7-0.7-1.3-1.2-1.8c-0.5-0.5-1.1-0.9-1.8-1.2c-0.7-0.3-1.4-0.5-2.2-0.5
		c-0.8,0-1.5,0.1-2.1,0.5c-0.6,0.3-1.2,0.7-1.6,1.2c-0.5,0.5-0.8,1.1-1,1.8C102.6,16.4,102.5,17.1,102.5,17.8z M139.8,26.3
		c-0.3,0.3-0.7,0.7-1,1c-0.4,0.4-0.8,0.7-1.3,1s-0.9,0.6-1.5,0.8c-0.5,0.2-1.1,0.3-1.7,0.3c-1.6,0-3.1-0.3-4.4-0.9
		c-1.3-0.6-2.5-1.4-3.5-2.5c-1-1-1.7-2.3-2.3-3.7c-0.5-1.4-0.8-2.9-0.8-4.5c0-1.6,0.3-3.1,0.8-4.5c0.5-1.4,1.3-2.6,2.3-3.7
		c1-1,2.2-1.9,3.5-2.4c1.3-0.6,2.8-0.9,4.4-0.9c0.6,0,1.2,0.1,1.8,0.3c0.5,0.2,1,0.4,1.5,0.7c0.4,0.3,0.8,0.6,1.2,1
		c0.4,0.4,0.7,0.7,1,1.1v-8c0-0.4,0.1-0.7,0.3-0.9c0.2-0.3,0.6-0.4,1-0.4h4c0.2,0,0.3,0,0.5,0.1c0.2,0.1,0.3,0.2,0.5,0.3
		c0.1,0.1,0.3,0.3,0.3,0.4c0.1,0.2,0.1,0.3,0.1,0.5v26.3c0,0.9-0.5,1.4-1.4,1.4h-3.4c-0.2,0-0.4,0-0.5-0.1c-0.1-0.1-0.2-0.1-0.3-0.3
		c-0.1-0.1-0.2-0.3-0.2-0.4c-0.1-0.2-0.2-0.4-0.3-0.6L139.8,26.3z M129.7,17.8c0,0.8,0.1,1.5,0.4,2.2c0.2,0.6,0.6,1.2,1,1.8
		c0.4,0.5,1,0.9,1.6,1.2c0.6,0.3,1.3,0.4,2.1,0.4c0.7,0,1.4-0.1,2.1-0.4c0.6-0.3,1.2-0.6,1.7-1.1c0.5-0.5,0.9-1.1,1.2-1.7
		c0.3-0.7,0.5-1.4,0.5-2.1v-0.2c0-1.5-0.6-2.9-1.6-3.9c-0.5-0.5-1.1-0.9-1.8-1.2c-0.7-0.3-1.4-0.5-2.2-0.5c-0.8,0-1.5,0.1-2.1,0.5
		c-0.6,0.3-1.2,0.7-1.6,1.2c-0.5,0.5-0.8,1.1-1,1.8C129.8,16.4,129.6,17.1,129.7,17.8L129.7,17.8z M151.2,1.4c0-0.4,0.1-0.7,0.3-0.9
		c0.2-0.3,0.5-0.4,1-0.4h4.3c0.1,0,0.2,0,0.4,0.1c0.1,0.1,0.3,0.2,0.4,0.3c0.1,0.1,0.2,0.3,0.3,0.4c0.1,0.2,0.1,0.3,0.1,0.5v26.3
		c0,0.4-0.1,0.8-0.4,1c-0.3,0.2-0.6,0.3-1,0.3h-4.1c-0.5,0-0.8-0.1-1-0.3c-0.2-0.2-0.3-0.6-0.3-1L151.2,1.4z M180.8,26.3
		c-1,0.9-2.2,1.7-3.5,2.2c-1.3,0.5-2.7,0.8-4.1,0.8c-1.6,0-3.1-0.3-4.6-0.9c-1.4-0.6-2.7-1.4-3.8-2.4c-1.1-1-2-2.3-2.6-3.7
		c-0.6-1.4-0.9-2.9-0.9-4.6c0-1,0.1-2,0.4-3c0.3-1,0.6-1.9,1.1-2.7c0.5-0.8,1-1.6,1.7-2.3c1.3-1.4,3-2.5,4.9-3c1-0.3,2-0.4,3-0.4
		c1,0,1.9,0.1,2.8,0.4c1.8,0.5,3.4,1.5,4.8,2.8c0.7,0.6,1.2,1.4,1.7,2.2c0.5,0.8,0.9,1.6,1.1,2.5c0.3,0.9,0.4,1.8,0.4,2.7
		c0,0.6,0,1.1,0,1.5c0,0.4-0.1,0.7-0.3,0.9c-0.2,0.2-0.4,0.4-0.8,0.5c-0.4,0.1-0.9,0.1-1.7,0.1h-12.7c0.1,0.8,0.4,1.4,0.7,1.9
		c0.4,0.5,0.8,0.9,1.2,1.2c0.5,0.3,1,0.5,1.5,0.6c0.5,0.1,1,0.2,1.5,0.2c0.4,0,0.9,0,1.3-0.1c0.4-0.1,0.9-0.2,1.3-0.4
		c0.4-0.1,0.8-0.3,1.1-0.5c0.3-0.2,0.6-0.4,0.8-0.6c0.2-0.2,0.3-0.3,0.5-0.3c0.1-0.1,0.3-0.1,0.4-0.1c0.2,0,0.3,0.1,0.5,0.2
		c0.2,0.1,0.3,0.3,0.5,0.5l1.9,2.1c0.1,0.2,0.2,0.3,0.2,0.4c0,0.1,0.1,0.3,0.1,0.4c0,0.2-0.1,0.4-0.2,0.6
		C181.1,26,181,26.2,180.8,26.3L180.8,26.3z M172.3,11.7c-0.5,0-0.9,0.1-1.3,0.3c-0.4,0.2-0.8,0.4-1.2,0.7c-0.4,0.3-0.7,0.7-1,1
		c-0.3,0.4-0.5,0.8-0.7,1.2h9c-0.2-0.4-0.5-0.9-0.8-1.3c-0.3-0.4-0.6-0.7-1-1c-0.4-0.3-0.8-0.5-1.3-0.7
		C173.5,11.7,173,11.7,172.3,11.7L172.3,11.7z"/>
</g>
</svg>
